[mov,mp4,m4a,3gp,3g2,mj2 @ 0x55b8d144b2c0] stream 0, timescale not set
[h264 @ 0x55b8d144ebc0] Reinit context to 1280x720, pix_fmt: yuv420p
Input #0, mov,mp4,m4a,3gp,3g2,mj2, from '/var/www/html/project/media/video/original/intervento_camion.mov':
  Metadata:
    major_brand     : qt  
    minor_version   : 0
    compatible_brands: qt  
    creation_time   : 2022-08-29T15:08:09.000000Z
    keywords        : intervento camion
    title           : intervento camion
    artist          : Michele
    com.apple.quicktime.author: Michele
    com.apple.quicktime.keywords: intervento camion
    com.apple.quicktime.displayname: intervento camion
    com.apple.quicktime.title: intervento camion
    com.apple.quicktime.description: This video is about Untitled Project
  Duration: 00:00:41.67, start: 0.000000, bitrate: 10340 kb/s
    Stream #0:0(ita): Audio: aac (LC) (mp4a / 0x6134706D), 48000 Hz, stereo, fltp, 129 kb/s (default)
    Metadata:
      creation_time   : 2022-08-29T15:08:09.000000Z
      handler_name    : Core Media Audio
    Stream #0:1(und): Video: h264 (High), 1 reference frame (avc1 / 0x31637661), yuv420p(tv, bt709, progressive, left), 1280x720 [SAR 1:1 DAR 16:9], 10144 kb/s, 30 fps, 30 tbr, 30k tbn, 60k tbc (default)
    Metadata:
      creation_time   : 2022-08-29T15:08:09.000000Z
      handler_name    : Core Media Video
      encoder         : H.264
      timecode        : 00:00:00:00
    Stream #0:2(und): Data: none (tmcd / 0x64636D74) (default)
    Metadata:
      creation_time   : 2022-08-29T15:08:09.000000Z
      handler_name    : Core Media Time Code
      timecode        : 00:00:00:00
    Stream #0:3: Video: mjpeg (Progressive), 1 reference frame, yuvj420p(pc, bt470bg/unknown/unknown, center), 1280x720 [SAR 72:72 DAR 16:9], 90k tbr, 90k tbn, 90k tbc (attached pic)
[h264 @ 0x55b8d1496c40] Reinit context to 1280x720, pix_fmt: yuv420p
Input #1, mov,mp4,m4a,3gp,3g2,mj2, from '/var/www/html/project/static/images/templates/Codino.mp4':
  Metadata:
    major_brand     : mp42
    minor_version   : 1
    compatible_brands: isommp41mp42
    creation_time   : 2021-07-11T07:02:58.000000Z
  Duration: 00:00:02.00, start: 0.000000, bitrate: 1007 kb/s
    Stream #1:0(ita): Audio: aac (LC) (mp4a / 0x6134706D), 44100 Hz, stereo, fltp, 102 kb/s (default)
    Metadata:
      creation_time   : 2021-07-11T07:02:58.000000Z
      handler_name    : Core Media Audio
    Stream #1:1(und): Video: h264 (High), 1 reference frame (avc1 / 0x31637661), yuv420p(tv, bt709, progressive, left), 1280x720 [SAR 1:1 DAR 16:9], 813 kb/s, 25 fps, 25 tbr, 25k tbn, 50k tbc (default)
    Metadata:
      creation_time   : 2021-07-11T07:02:58.000000Z
      handler_name    : Core Media Video
[Parsed_scale_0 @ 0x55b8d14c2ec0] w:1280 h:720 flags:'bilinear' interl:0
[Parsed_scale_2 @ 0x55b8d14c0c40] w:1280 h:720 flags:'bilinear' interl:0
Stream mapping:
  Stream #0:0 (aac) -> concat:in0:a0
  Stream #0:1 (h264) -> scale
  Stream #1:0 (aac) -> concat:in1:a0
  Stream #1:1 (h264) -> scale
  concat:out:v0 -> Stream #0:0 (libx264)
  concat:out:a0 -> Stream #0:1 (aac)
Press [q] to stop, [?] for help
[h264 @ 0x55b8d145e100] Reinit context to 1280x720, pix_fmt: yuv420p
[h264 @ 0x55b8d183ea00] Reinit context to 1280x720, pix_fmt: yuv420p
[Parsed_scale_0 @ 0x55b8d14ce480] w:1280 h:720 flags:'bilinear' interl:0
[Parsed_scale_2 @ 0x55b8d27ddb00] w:1280 h:720 flags:'bilinear' interl:0
[graph 0 input from stream 0:1 @ 0x55b8d27e0d00] w:1280 h:720 pixfmt:yuv420p tb:1/30000 fr:30/1 sar:1/1 sws_param:flags=2
[graph 0 input from stream 1:1 @ 0x55b8d27e1d40] w:1280 h:720 pixfmt:yuv420p tb:1/25000 fr:25/1 sar:1/1 sws_param:flags=2
[graph_0_in_0_0 @ 0x55b8d27e2d00] tb:1/48000 samplefmt:fltp samplerate:48000 chlayout:0x3
[graph_0_in_1_0 @ 0x55b8d27e3e40] tb:1/44100 samplefmt:fltp samplerate:44100 chlayout:0x3
[Parsed_concat_4 @ 0x55b8d27ded00] auto-inserting filter 'auto_resampler_0' between the filter 'graph_0_in_1_0' and the filter 'Parsed_concat_4'
[Parsed_scale_0 @ 0x55b8d14ce480] w:1280 h:720 fmt:yuv420p sar:1/1 -> w:1280 h:720 fmt:yuv420p sar:1/1 flags:0x2
[Parsed_setsar_1 @ 0x55b8d27d5a80] w:1280 h:720 sar:1/1 dar:16/9 -> sar:1/1 dar:16/9
[Parsed_scale_2 @ 0x55b8d27ddb00] w:1280 h:720 fmt:yuv420p sar:1/1 -> w:1280 h:720 fmt:yuv420p sar:1/1 flags:0x2
[Parsed_setsar_3 @ 0x55b8d27de040] w:1280 h:720 sar:1/1 dar:16/9 -> sar:1/1 dar:16/9
[auto_resampler_0 @ 0x55b8d27e6d40] ch:2 chl:stereo fmt:fltp r:44100Hz -> ch:2 chl:stereo fmt:fltp r:48000Hz
[libx264 @ 0x55b8d14bf7c0] using SAR=1/1
[libx264 @ 0x55b8d14bf7c0] using cpu capabilities: MMX2 SSE2Fast SSSE3 SSE4.2 AVX FMA3 BMI2 AVX2
[libx264 @ 0x55b8d14bf7c0] profile High, level 3.1
[libx264 @ 0x55b8d14bf7c0] 264 - core 155 r2917 0a84d98 - H.264/MPEG-4 AVC codec - Copyleft 2003-2018 - http://www.videolan.org/x264.html - options: cabac=1 ref=1 deblock=1:0:0 analyse=0x3:0x113 me=hex subme=2 psy=1 psy_rd=1.00:0.00 mixed_ref=0 me_range=16 chroma_me=1 trellis=0 8x8dct=1 cqm=0 deadzone=21,11 fast_pskip=1 chroma_qp_offset=0 threads=22 lookahead_threads=5 sliced_threads=0 nr=0 decimate=1 interlaced=0 bluray_compat=0 constrained_intra=0 bframes=3 b_pyramid=2 b_adapt=1 b_bias=0 direct=1 weightb=1 open_gop=0 weightp=1 keyint=250 keyint_min=25 scenecut=40 intra_refresh=0 rc_lookahead=10 rc=crf mbtree=1 crf=18.0 qcomp=0.60 qpmin=0 qpmax=69 qpstep=4 ip_ratio=1.40 aq=1:1.00
Output #0, mp4, to '/var/www/html/project/media/video/watermarks/intervento_camion.mp4':
  Metadata:
    major_brand     : qt  
    minor_version   : 0
    compatible_brands: qt  
    com.apple.quicktime.description: This video is about Untitled Project
    keywords        : intervento camion
    title           : intervento camion
    artist          : Michele
    com.apple.quicktime.author: Michele
    com.apple.quicktime.keywords: intervento camion
    com.apple.quicktime.displayname: intervento camion
    com.apple.quicktime.title: intervento camion
    encoder         : Lavf58.29.100
    Stream #0:0: Video: h264 (libx264), 1 reference frame (avc1 / 0x31637661), yuv420p(progressive), 1280x720 [SAR 1:1 DAR 16:9], q=-1--1, 30 fps, 15360 tbn, 30 tbc (default)
    Metadata:
      encoder         : Lavc58.54.100 libx264
    Side data:
      cpb: bitrate max/min/avg: 0/0/0 buffer size: 0 vbv_delay: -1
    Stream #0:1: Audio: aac (LC) (mp4a / 0x6134706D), 48000 Hz, stereo, fltp, delay 1024, 128 kb/s (default)
    Metadata:
      encoder         : Lavc58.54.100 aac
[Parsed_concat_4 @ 0x55b8d27ded00] EOF on in0:a0, 1 streams left in segment.
[Parsed_concat_4 @ 0x55b8d27ded00] EOF on in0:v0, 0 streams left in segment.
[Parsed_concat_4 @ 0x55b8d27ded00] Segment finished at pts=41684000
[Parsed_concat_4 @ 0x55b8d27ded00] EOF on in1:v0, 1 streams left in segment.
[Parsed_concat_4 @ 0x55b8d27ded00] EOF on in1:a0, 0 streams left in segment.
[Parsed_concat_4 @ 0x55b8d27ded00] Segment finished at pts=43702687
No more output streams to write to, finishing.
frame= 1300 fps=203 q=-1.0 Lsize=   49399kB time=00:00:43.71 bitrate=9257.9kbits/s speed=6.83x    
[AVIOContext @ 0x55b8d144b180] Statistics: 0 seeks, 13 writeouts
video:48641kB audio:711kB subtitle:0kB other streams:0kB global headers:0kB muxing overhead: 0.097281%
Input file #0 (/var/www/html/project/media/video/original/intervento_camion.mov):
  Input stream #0:0 (audio): 1956 packets read (677861 bytes); 1954 frames decoded (2000832 samples); 
  Input stream #0:1 (video): 1250 packets read (52836238 bytes); 1250 frames decoded; 
  Input stream #0:2 (data): 0 packets read (0 bytes); 
  Input stream #0:3 (video): 1 packets read (313321 bytes); 
  Total: 3207 packets (53827420 bytes) demuxed
Input file #1 (/var/www/html/project/static/images/templates/Codino.mp4):
  Input stream #1:0 (audio): 89 packets read (26579 bytes); 87 frames decoded (89024 samples); 
  Input stream #1:1 (video): 50 packets read (203365 bytes); 50 frames decoded; 
  Total: 139 packets (229944 bytes) demuxed
Output file #0 (/var/www/html/project/media/video/watermarks/intervento_camion.mp4):
  Output stream #0:0 (video): 1300 frames encoded; 1300 packets muxed (49807968 bytes); 
  Output stream #0:1 (audio): 2049 frames encoded (2097729 samples); 2050 packets muxed (727939 bytes); 
  Total: 3350 packets (50535907 bytes) muxed
[AVIOContext @ 0x55b8d14bf380] Statistics: 2 seeks, 196 writeouts
[libx264 @ 0x55b8d14bf7c0] frame I:11    Avg QP:14.91  size:197066
[libx264 @ 0x55b8d14bf7c0] frame P:397   Avg QP:18.43  size: 75862
[libx264 @ 0x55b8d14bf7c0] frame B:892   Avg QP:21.91  size: 19644
[libx264 @ 0x55b8d14bf7c0] consecutive B-frames:  5.4%  8.9%  1.4% 84.3%
[libx264 @ 0x55b8d14bf7c0] mb I  I16..4: 26.1% 14.6% 59.3%
[libx264 @ 0x55b8d14bf7c0] mb P  I16..4: 12.0%  6.7%  2.0%  P16..4: 40.7% 14.4% 12.9%  0.0%  0.0%    skip:11.4%
[libx264 @ 0x55b8d14bf7c0] mb B  I16..4:  1.9%  0.7%  0.0%  B16..8: 19.0%  8.7%  2.6%  direct:21.0%  skip:46.1%  L0:33.8% L1:32.7% BI:33.6%
[libx264 @ 0x55b8d14bf7c0] 8x8 transform intra:29.5% inter:60.0%
[libx264 @ 0x55b8d14bf7c0] coded y,uvDC,uvAC intra: 35.1% 58.7% 18.5% inter: 32.4% 14.7% 1.3%
[libx264 @ 0x55b8d14bf7c0] i16 v,h,dc,p: 52% 25% 20%  3%
[libx264 @ 0x55b8d14bf7c0] i8 v,h,dc,ddl,ddr,vr,hd,vl,hu: 27% 20% 44%  1%  2%  2%  2%  2%  2%
[libx264 @ 0x55b8d14bf7c0] i4 v,h,dc,ddl,ddr,vr,hd,vl,hu: 19% 19% 17%  6%  8%  7%  8%  7%  9%
[libx264 @ 0x55b8d14bf7c0] i8c dc,h,v,p: 55% 22% 20%  4%
[libx264 @ 0x55b8d14bf7c0] Weighted P-Frames: Y:5.0% UV:0.0%
[libx264 @ 0x55b8d14bf7c0] kb/s:9125.00
[aac @ 0x55b8d14abcc0] Qavg: 1554.823
[AVIOContext @ 0x55b8d1454040] Statistics: 101246461 bytes read, 2461 seeks
[AVIOContext @ 0x55b8d14b3c40] Statistics: 1530915 bytes read, 42 seeks
